<mxfile host="app.diagrams.net" modified="2024-04-01T00:40:08.894Z" agent="Mozilla/5.0 (Macintosh; Intel Mac OS X 10_15_7) AppleWebKit/605.1.15 (KHTML, like Gecko) Version/17.4 Safari/605.1.15" etag="WjECxAJZ0YxZPZlJCzuD" version="24.1.0" type="device">
  <diagram name="Page-1" id="hrw902O539XTYLNtP8d-">
    <mxGraphModel dx="984" dy="667" grid="1" gridSize="10" guides="1" tooltips="1" connect="1" arrows="1" fold="1" page="1" pageScale="1" pageWidth="827" pageHeight="1169" math="0" shadow="0">
      <root>
        <mxCell id="0" />
        <mxCell id="1" parent="0" />
        <mxCell id="lFsfy4obLwNb20StSC2V-19" value="" style="rounded=0;whiteSpace=wrap;html=1;fillColor=#f5f5f5;fontColor=#333333;strokeColor=#666666;" parent="1" vertex="1">
          <mxGeometry x="40" y="110" width="580" height="260" as="geometry" />
        </mxCell>
        <mxCell id="lFsfy4obLwNb20StSC2V-14" value="" style="rounded=0;whiteSpace=wrap;html=1;" parent="1" vertex="1">
          <mxGeometry x="80" y="155" width="490" height="145" as="geometry" />
        </mxCell>
        <mxCell id="lFsfy4obLwNb20StSC2V-2" value="&lt;span style=&quot;font-size: 11px;&quot;&gt;00000000&lt;/span&gt;" style="rounded=0;whiteSpace=wrap;html=1;fillColor=#f8cecc;strokeColor=#b85450;fontStyle=1;fontSize=11;" parent="1" vertex="1">
          <mxGeometry x="106" y="197.5" width="60" height="60" as="geometry" />
        </mxCell>
        <mxCell id="lFsfy4obLwNb20StSC2V-3" value="&lt;span style=&quot;font-size: 11px;&quot;&gt;00000000&lt;/span&gt;" style="rounded=0;whiteSpace=wrap;html=1;fillColor=#f8cecc;strokeColor=#b85450;fontStyle=1;fontSize=11;" parent="1" vertex="1">
          <mxGeometry x="166" y="197.5" width="60" height="60" as="geometry" />
        </mxCell>
        <mxCell id="lFsfy4obLwNb20StSC2V-4" value="&lt;span style=&quot;font-size: 11px;&quot;&gt;00000000&lt;/span&gt;" style="rounded=0;whiteSpace=wrap;html=1;fillColor=#f8cecc;strokeColor=#b85450;fontStyle=1;fontSize=11;" parent="1" vertex="1">
          <mxGeometry x="226" y="197.5" width="60" height="60" as="geometry" />
        </mxCell>
        <mxCell id="lFsfy4obLwNb20StSC2V-5" value="&lt;font style=&quot;font-size: 11px;&quot;&gt;00101000&lt;/font&gt;" style="rounded=0;whiteSpace=wrap;html=1;fillColor=#f8cecc;strokeColor=#b85450;fontStyle=1;fontSize=11;" parent="1" vertex="1">
          <mxGeometry x="286" y="197.5" width="60" height="60" as="geometry" />
        </mxCell>
        <mxCell id="lFsfy4obLwNb20StSC2V-8" value="0X00" style="text;html=1;align=center;verticalAlign=middle;whiteSpace=wrap;rounded=0;fontColor=#990000;fontStyle=1" parent="1" vertex="1">
          <mxGeometry x="316" y="257.5" width="60" height="30" as="geometry" />
        </mxCell>
        <mxCell id="lFsfy4obLwNb20StSC2V-10" value="&lt;font style=&quot;font-size: 15px;&quot;&gt;Byte 1&lt;/font&gt;" style="text;html=1;align=center;verticalAlign=middle;whiteSpace=wrap;rounded=0;" parent="1" vertex="1">
          <mxGeometry x="286" y="167.5" width="60" height="30" as="geometry" />
        </mxCell>
        <mxCell id="lFsfy4obLwNb20StSC2V-11" value="&lt;font style=&quot;font-size: 15px;&quot;&gt;Byte 2&lt;/font&gt;" style="text;html=1;align=center;verticalAlign=middle;whiteSpace=wrap;rounded=0;" parent="1" vertex="1">
          <mxGeometry x="226" y="167.5" width="60" height="30" as="geometry" />
        </mxCell>
        <mxCell id="lFsfy4obLwNb20StSC2V-12" value="&lt;font style=&quot;font-size: 15px;&quot;&gt;Byte 3&lt;/font&gt;" style="text;html=1;align=center;verticalAlign=middle;whiteSpace=wrap;rounded=0;" parent="1" vertex="1">
          <mxGeometry x="166" y="167.5" width="60" height="30" as="geometry" />
        </mxCell>
        <mxCell id="lFsfy4obLwNb20StSC2V-13" value="&lt;font style=&quot;font-size: 15px;&quot;&gt;Byte 4&lt;/font&gt;" style="text;html=1;align=center;verticalAlign=middle;whiteSpace=wrap;rounded=0;" parent="1" vertex="1">
          <mxGeometry x="110" y="167.5" width="60" height="30" as="geometry" />
        </mxCell>
        <mxCell id="lFsfy4obLwNb20StSC2V-21" value="0X01" style="text;html=1;align=center;verticalAlign=middle;whiteSpace=wrap;rounded=0;fontColor=#990000;fontStyle=1" parent="1" vertex="1">
          <mxGeometry x="256" y="257.5" width="60" height="30" as="geometry" />
        </mxCell>
        <mxCell id="lFsfy4obLwNb20StSC2V-22" value="0X02" style="text;html=1;align=center;verticalAlign=middle;whiteSpace=wrap;rounded=0;fontColor=#990000;fontStyle=1" parent="1" vertex="1">
          <mxGeometry x="196" y="257.5" width="60" height="30" as="geometry" />
        </mxCell>
        <mxCell id="lFsfy4obLwNb20StSC2V-23" value="0X03" style="text;html=1;align=center;verticalAlign=middle;whiteSpace=wrap;rounded=0;fontColor=#990000;fontStyle=1" parent="1" vertex="1">
          <mxGeometry x="136" y="257.5" width="60" height="30" as="geometry" />
        </mxCell>
        <mxCell id="LY4sB3mU6g4VXUHB-9Zz-1" value="0X00" style="rounded=0;whiteSpace=wrap;html=1;fillColor=#f8cecc;strokeColor=#b85450;fontStyle=1;fontSize=11;" vertex="1" parent="1">
          <mxGeometry x="470" y="197.5" width="60" height="60" as="geometry" />
        </mxCell>
        <mxCell id="LY4sB3mU6g4VXUHB-9Zz-13" value="0X04" style="text;html=1;align=center;verticalAlign=middle;whiteSpace=wrap;rounded=0;fontColor=#990000;fontStyle=1" vertex="1" parent="1">
          <mxGeometry x="80" y="257.5" width="60" height="30" as="geometry" />
        </mxCell>
        <mxCell id="LY4sB3mU6g4VXUHB-9Zz-17" value="&lt;font style=&quot;font-size: 15px;&quot;&gt;int *ptr = (int *) malloc( sizeof(int) ); &amp;nbsp; &amp;nbsp;&amp;nbsp;&lt;/font&gt;" style="text;html=1;align=center;verticalAlign=middle;whiteSpace=wrap;rounded=0;" vertex="1" parent="1">
          <mxGeometry x="120" y="330" width="240" height="30" as="geometry" />
        </mxCell>
        <mxCell id="LY4sB3mU6g4VXUHB-9Zz-25" value="0XXX" style="text;html=1;align=center;verticalAlign=middle;whiteSpace=wrap;rounded=0;fontColor=#990000;fontStyle=1" vertex="1" parent="1">
          <mxGeometry x="500" y="257.5" width="60" height="30" as="geometry" />
        </mxCell>
        <mxCell id="LY4sB3mU6g4VXUHB-9Zz-26" value="" style="endArrow=classic;html=1;rounded=0;exitX=0.5;exitY=0;exitDx=0;exitDy=0;entryX=0;entryY=0;entryDx=0;entryDy=0;" edge="1" parent="1" source="lFsfy4obLwNb20StSC2V-8" target="LY4sB3mU6g4VXUHB-9Zz-25">
          <mxGeometry width="50" height="50" relative="1" as="geometry">
            <mxPoint x="390" y="230" as="sourcePoint" />
            <mxPoint x="440" y="180" as="targetPoint" />
          </mxGeometry>
        </mxCell>
        <mxCell id="LY4sB3mU6g4VXUHB-9Zz-27" value="&lt;font style=&quot;font-size: 15px;&quot;&gt;int *ptr&lt;/font&gt;" style="text;html=1;align=center;verticalAlign=middle;whiteSpace=wrap;rounded=0;" vertex="1" parent="1">
          <mxGeometry x="414" y="210" width="60" height="30" as="geometry" />
        </mxCell>
      </root>
    </mxGraphModel>
  </diagram>
</mxfile>
